# xmcd CD database file
#
# Track frame offsets:
#	150
#	21568
#	40622
#	63564
#	82237
#	100503
#	126711
#	142015
#	163477
#	185244
#	203938
#	220437
#	239287
#	277896
#
# Disc length: 3926 seconds
#
# Revision: 0
# Processed by: cddbd v1.5.1PL0 Copyright (c) Steve Scherf et al.
# Submitted via: CDex 1.40Beta9
#
DISCID=e30f540e
DTITLE=Will Hass - Pickin' Up The Pieces
DYEAR=2004
DGENRE=Country
TTITLE0=Lightning Struck
TTITLE1=Fellowship
TTITLE2=Pickin' Up The Pieces
TTITLE3=Stargazer
TTITLE4=Lone Star Cowboy
TTITLE5=Small Town Girl
TTITLE6=Lady In Red
TTITLE7=The Hanging Tree
TTITLE8=Kings Of Olden Days
TTITLE9=The Sky Is The Limit
TTITLE10=Caroline
TTITLE11=Heart Of Mine
TTITLE12=Betty Boyd
TTITLE13=Sing To The Seasons
EXTD=YEAR: 2004 ID3G: 2
EXTT0=
EXTT1=
EXTT2=
EXTT3=
EXTT4=
EXTT5=
EXTT6=
EXTT7=
EXTT8=
EXTT9=
EXTT10=
EXTT11=
EXTT12=
EXTT13=
PLAYORDER=
